<svg width="975" height="975" xmlns="http://www.w3.org/2000/svg" xmlns:xlink="http://www.w3.org/1999/xlink" xml:space="preserve" overflow="hidden"><defs><clipPath id="clip0"><rect x="1712" y="748" width="975" height="975"/></clipPath></defs><g clip-path="url(#clip0)" transform="translate(-1712 -748)"><path d="M0-0.00505233 55.0004-0.00505233 55.0004 251.996 0 251.996Z" fill="#B1B3B3" fill-rule="evenodd" transform="matrix(1 0 0 -1 2318 1314)"/><path d="M0 0.0153988 347 0.0153988 347 55.0154 0 55.0154Z" fill="#B1B3B3" fill-rule="evenodd" transform="matrix(1 0 0 -1 2026 1410)"/><path d="M199.767 252.117 50.4133 252.117C23.5867 250.042 2.20097 228.654 0.114317 201.824L0.114317 0.116565 55.3445 0.116565 55.3445 197.022 97.6817 197.022 97.6817 0.116565 152.76 0.116565 152.719 197.022 195.028 197.022 195.028 0.116565 250.114 0.116565 250.087 201.529C248.138 228.489 226.683 250.035 199.767 252.117" fill="#B1B3B3" fill-rule="evenodd" transform="matrix(1 0 0 -1 2026 1314)"/><path d="M285.138 92.8027 92.5062 286.099 285.138 479.402 285.138 572.103 0.138505 286.099 285.138 0.102599Z" fill="#009A44" fill-rule="evenodd" transform="matrix(1 0 0 -1 2401 1522)"/><path d="M145.139 92.8993 92.2925 146.11 145.139 199.32 145.139 292.11 0.138174 146.11 145.139 0.10993Z" fill="#009A44" fill-rule="evenodd" transform="matrix(1 0 0 -1 2541 1382)"/><path d="M92.3867 0.130641 142.607 50.5273 192.834 0.130641 285.11 0.130641 142.607 143.131 0.11018 0.130641Z" fill="#0057B8" fill-rule="evenodd" transform="matrix(1 0 0 -1 2056 1723)"/><path d="M92.295 0.123166 284.602 193.442 476.91 0.123166 569.103 0.123166 284.602 286.124 0.102501 0.123166Z" fill="#0057B8" fill-rule="evenodd" transform="matrix(1 0 0 -1 1914 1723)"/><path d="M476.887 286.102 284.619 92.8213 92.3587 286.102 0.12277 286.102 284.619 0.102266 569.123 286.102Z" fill="#4EC3E0" fill-rule="evenodd" transform="matrix(1 0 0 -1 1914 1035)"/><path d="M197.916 146.095 145.112 92.9328 92.3155 146.095 0.115142 146.095 145.112 0.0947914 290.116 146.095Z" fill="#4EC3E0" fill-rule="evenodd" transform="matrix(1 0 0 -1 2054 895)"/><path d="M152.585 218.098 65.3066 218.098 0.134589 152.776 152.585 152.776 152.798 0.0984532 218.135 65.5857 218.135 152.398C218.135 188.685 188.788 218.098 152.585 218.098" fill="#F04E98" fill-rule="evenodd" transform="matrix(1 0 0 -1 2467 967)"/><path d="M0.121078 151.814 153.035 151.814 153.035 0.100033 218.121 65.2769 218.121 217.101 65.3165 217.101Z" fill="#F04E98" fill-rule="evenodd" transform="matrix(1 0 0 -1 2363 1071)"/><path d="M0.116112 152.467 153.783 152.467 153.783 0.106 219.116 65.6348 219.116 218.106 65.5591 218.106Z" fill="#F04E98" fill-rule="evenodd" transform="matrix(1 0 0 -1 2258 1176)"/><path d="M0.0867689 290.12 0.0867689 197.512 52.1197 145.12 0.0867689 92.7282 0.0867689 0.120181 144.087 145.12Z" fill="#C8102E" fill-rule="evenodd" transform="matrix(1 0 0 -1 1712 1381)"/><path d="M0.0870618 570.128 0.0870618 477.52 191.809 285.131 0.0870618 92.7285 0.0870618 0.127399 284.087 285.131Z" fill="#C8102E" fill-rule="evenodd" transform="matrix(1 0 0 -1 1712 1521)"/><path d="M65.5857 0.11572 220.119 0.11572 220.119 152.818 154.763 218.116 154.763 65.5231 0.119409 65.5231Z" fill="#FE5000" fill-rule="evenodd" transform="matrix(1 0 0 -1 2258 1514)"/><path d="M154.695 219.138 154.695 65.9574 0.135142 65.758 65.7614 0.138373 154.316 0.138373C190.668 0.138373 220.136 29.605 220.136 65.9574L220.136 153.698Z" fill="#FE5000" fill-rule="evenodd" transform="matrix(1 0 0 -1 2466 1723)"/><path d="M65.6425 0.121587 220.125 0.121587 220.125 153.576 154.711 219.122 154.711 65.7774 0.124935 65.7774Z" fill="#FE5000" fill-rule="evenodd" transform="matrix(1 0 0 -1 2362 1619)"/><path d="M65.4885 222.138 0.0902822 156.499 0.0902822 65.9842C0.0902822 29.617 29.462 0.138429 65.6947 0.138429L153.864 0.138429 219.091 65.6058 65.6947 65.6058Z" fill="#78BE20" fill-rule="evenodd" transform="matrix(1 0 0 -1 1712 1723)"/><path d="M65.3454 0.0978906 65.3454 153.56 218.101 153.56 152.748 219.098 0.101505 219.098 0.101505 65.5264Z" fill="#9E26B5" fill-rule="evenodd" transform="matrix(1 0 0 -1 1922 1177)"/><path d="M65.0916 0.0923968 65.0916 153.608 217.096 153.608 151.99 219.093 0.0957209 219.093 0.0957209 65.4675Z" fill="#9B26B6" fill-rule="evenodd" transform="matrix(1 0 0 -1 1818 1073)"/><path d="M65.2982 0.086912 65.2982 153.388 219.091 153.601 153.718 219.087 65.6762 219.087C29.4537 219.087 0.0902567 189.674 0.0902567 153.388L0.0902567 65.4087Z" fill="#9B26B6" fill-rule="evenodd" transform="matrix(1 0 0 -1 1712 968)"/><path d="M65.1733 65.5551 65.1733 221.119 0.101237 155.793 0.101237 0.119017 151.92 0.119017 217.102 65.5551Z" fill="#78BE20" fill-rule="evenodd" transform="matrix(1 0 0 -1 1922 1514)"/><path d="M65.2214 222.133 0.0959117 156.562 0.0959117 0.132857 151.861 0.132857 217.096 65.8144 65.2214 65.8144Z" fill="#78BE20" fill-rule="evenodd" transform="matrix(1 0 0 -1 1818 1619)"/></g></svg>